<mxfile host="app.diagrams.net" modified="2024-04-01T05:24:59.991Z" agent="Mozilla/5.0 (Windows NT 10.0; Win64; x64) AppleWebKit/537.36 (KHTML, like Gecko) Chrome/122.0.0.0 Safari/537.36" etag="HEb8ZCTNKVWH6vTbnQfQ" version="24.0.2" type="device">
  <diagram name="Page-1" id="5ccul7OPLzOFrav8XejX">
    <mxGraphModel dx="899" dy="1458" grid="1" gridSize="10" guides="1" tooltips="1" connect="1" arrows="1" fold="1" page="1" pageScale="1" pageWidth="850" pageHeight="1100" math="0" shadow="0">
      <root>
        <mxCell id="0" />
        <mxCell id="1" parent="0" />
        <mxCell id="STcEJnerJbnFKZ_Bv3ub-3" value="" style="endArrow=none;html=1;rounded=0;exitX=0.5;exitY=1;exitDx=0;exitDy=0;entryX=0.5;entryY=0;entryDx=0;entryDy=0;" edge="1" parent="1" source="STcEJnerJbnFKZ_Bv3ub-2" target="4Z-iEA_zes4jmot7_6xP-2">
          <mxGeometry width="50" height="50" relative="1" as="geometry">
            <mxPoint x="580" y="-200" as="sourcePoint" />
            <mxPoint x="630" y="-250" as="targetPoint" />
          </mxGeometry>
        </mxCell>
        <mxCell id="STcEJnerJbnFKZ_Bv3ub-26" value="" style="endArrow=none;html=1;rounded=0;entryX=0.5;entryY=0;entryDx=0;entryDy=0;exitX=0.5;exitY=1;exitDx=0;exitDy=0;" edge="1" parent="1" source="4Z-iEA_zes4jmot7_6xP-2" target="STcEJnerJbnFKZ_Bv3ub-21">
          <mxGeometry width="50" height="50" relative="1" as="geometry">
            <mxPoint x="890" y="-90" as="sourcePoint" />
            <mxPoint x="940" y="-140" as="targetPoint" />
          </mxGeometry>
        </mxCell>
        <mxCell id="4Z-iEA_zes4jmot7_6xP-26" value="4 Random&lt;div&gt;Categories&lt;/div&gt;" style="html=1;verticalAlign=bottom;startArrow=oval;startFill=0;endArrow=open;startSize=6;endSize=8;curved=1;rounded=0;strokeColor=#000000;strokeWidth=1;" parent="1" edge="1">
          <mxGeometry x="0.2615" y="4" width="80" relative="1" as="geometry">
            <mxPoint x="740" y="-560" as="sourcePoint" />
            <mxPoint x="820" y="-490" as="targetPoint" />
            <mxPoint as="offset" />
          </mxGeometry>
        </mxCell>
        <mxCell id="4Z-iEA_zes4jmot7_6xP-2" value="Connections" style="rounded=0;whiteSpace=wrap;html=1;" parent="1" vertex="1">
          <mxGeometry x="789" y="-430" width="120" height="60" as="geometry" />
        </mxCell>
        <mxCell id="4Z-iEA_zes4jmot7_6xP-4" value="Flatten and Shuffle Category Words" style="rounded=0;whiteSpace=wrap;html=1;" parent="1" vertex="1">
          <mxGeometry x="350" y="-30" width="120" height="60" as="geometry" />
        </mxCell>
        <mxCell id="4Z-iEA_zes4jmot7_6xP-5" value="Print Welcome Screen" style="rounded=0;whiteSpace=wrap;html=1;" parent="1" vertex="1">
          <mxGeometry x="560" y="-30" width="120" height="60" as="geometry" />
        </mxCell>
        <mxCell id="4Z-iEA_zes4jmot7_6xP-6" value="Generate Shuffled and Aligned Grid" style="rounded=0;whiteSpace=wrap;html=1;" parent="1" vertex="1">
          <mxGeometry x="789" y="-30" width="120" height="60" as="geometry" />
        </mxCell>
        <mxCell id="4Z-iEA_zes4jmot7_6xP-12" value="" style="endArrow=none;html=1;rounded=0;exitX=0.5;exitY=0;exitDx=0;exitDy=0;entryX=0.5;entryY=1;entryDx=0;entryDy=0;" parent="1" source="4Z-iEA_zes4jmot7_6xP-4" target="4Z-iEA_zes4jmot7_6xP-2" edge="1">
          <mxGeometry width="50" height="50" relative="1" as="geometry">
            <mxPoint x="590" y="80" as="sourcePoint" />
            <mxPoint x="640" y="30" as="targetPoint" />
          </mxGeometry>
        </mxCell>
        <mxCell id="4Z-iEA_zes4jmot7_6xP-13" value="" style="endArrow=none;html=1;rounded=0;entryX=0.5;entryY=0;entryDx=0;entryDy=0;exitX=0.5;exitY=1;exitDx=0;exitDy=0;" parent="1" source="4Z-iEA_zes4jmot7_6xP-2" target="4Z-iEA_zes4jmot7_6xP-5" edge="1">
          <mxGeometry width="50" height="50" relative="1" as="geometry">
            <mxPoint x="844" y="-292.3397459621556" as="sourcePoint" />
            <mxPoint x="710" y="100" as="targetPoint" />
          </mxGeometry>
        </mxCell>
        <mxCell id="4Z-iEA_zes4jmot7_6xP-30" value="Categories" style="html=1;verticalAlign=bottom;startArrow=oval;startFill=0;endArrow=open;startSize=6;endSize=8;curved=1;rounded=0;strokeColor=#000000;strokeWidth=1;" parent="1" edge="1">
          <mxGeometry width="80" relative="1" as="geometry">
            <mxPoint x="590" y="-190" as="sourcePoint" />
            <mxPoint x="490" y="-110" as="targetPoint" />
          </mxGeometry>
        </mxCell>
        <mxCell id="4Z-iEA_zes4jmot7_6xP-31" value="Shuffled Categories" style="html=1;verticalAlign=bottom;startArrow=oval;startFill=0;endArrow=open;startSize=6;endSize=8;curved=1;rounded=0;strokeColor=#000000;strokeWidth=1;" parent="1" edge="1">
          <mxGeometry x="-0.1538" y="-8" width="80" relative="1" as="geometry">
            <mxPoint x="610" y="-160" as="sourcePoint" />
            <mxPoint x="700" y="-230" as="targetPoint" />
            <mxPoint as="offset" />
          </mxGeometry>
        </mxCell>
        <mxCell id="4Z-iEA_zes4jmot7_6xP-38" value="Typerwriter Effect" style="html=1;verticalAlign=bottom;startArrow=oval;startFill=0;endArrow=open;startSize=6;endSize=8;curved=1;rounded=0;strokeColor=#000000;strokeWidth=1;" parent="1" edge="1">
          <mxGeometry x="0.1188" y="13" width="80" relative="1" as="geometry">
            <mxPoint x="730" y="-180" as="sourcePoint" />
            <mxPoint x="670" y="-70" as="targetPoint" />
            <mxPoint x="1" as="offset" />
          </mxGeometry>
        </mxCell>
        <mxCell id="4Z-iEA_zes4jmot7_6xP-41" value="" style="endArrow=none;html=1;rounded=0;exitX=0.5;exitY=0;exitDx=0;exitDy=0;entryX=0.5;entryY=1;entryDx=0;entryDy=0;" parent="1" source="4Z-iEA_zes4jmot7_6xP-6" target="4Z-iEA_zes4jmot7_6xP-2" edge="1">
          <mxGeometry width="50" height="50" relative="1" as="geometry">
            <mxPoint x="880" y="-30" as="sourcePoint" />
            <mxPoint x="880" y="-300" as="targetPoint" />
          </mxGeometry>
        </mxCell>
        <mxCell id="4Z-iEA_zes4jmot7_6xP-42" value="Shuffled Categories" style="html=1;verticalAlign=bottom;startArrow=oval;startFill=0;endArrow=open;startSize=6;endSize=8;curved=1;rounded=0;strokeColor=#000000;strokeWidth=1;" parent="1" edge="1">
          <mxGeometry x="0.2" width="80" relative="1" as="geometry">
            <mxPoint x="820" y="-200" as="sourcePoint" />
            <mxPoint x="820" y="-60" as="targetPoint" />
            <mxPoint as="offset" />
          </mxGeometry>
        </mxCell>
        <mxCell id="STcEJnerJbnFKZ_Bv3ub-2" value="Categories File" style="rounded=0;whiteSpace=wrap;html=1;" vertex="1" parent="1">
          <mxGeometry x="640" y="-640" width="120" height="60" as="geometry" />
        </mxCell>
        <mxCell id="STcEJnerJbnFKZ_Bv3ub-4" value="Typewriter File" style="rounded=0;whiteSpace=wrap;html=1;" vertex="1" parent="1">
          <mxGeometry x="940" y="-640" width="120" height="60" as="geometry" />
        </mxCell>
        <mxCell id="STcEJnerJbnFKZ_Bv3ub-7" value="" style="endArrow=none;html=1;rounded=0;entryX=0.5;entryY=1;entryDx=0;entryDy=0;exitX=0.5;exitY=0;exitDx=0;exitDy=0;" edge="1" parent="1" source="4Z-iEA_zes4jmot7_6xP-2" target="STcEJnerJbnFKZ_Bv3ub-4">
          <mxGeometry width="50" height="50" relative="1" as="geometry">
            <mxPoint x="880" y="-430" as="sourcePoint" />
            <mxPoint x="930" y="-480" as="targetPoint" />
          </mxGeometry>
        </mxCell>
        <mxCell id="STcEJnerJbnFKZ_Bv3ub-9" value="Typewriter Effect" style="html=1;verticalAlign=bottom;startArrow=oval;startFill=0;endArrow=open;startSize=6;endSize=8;curved=1;rounded=0;strokeColor=#000000;strokeWidth=1;" edge="1" parent="1">
          <mxGeometry x="0.2615" y="4" width="80" relative="1" as="geometry">
            <mxPoint x="950" y="-560" as="sourcePoint" />
            <mxPoint x="890" y="-490" as="targetPoint" />
            <mxPoint as="offset" />
          </mxGeometry>
        </mxCell>
        <mxCell id="STcEJnerJbnFKZ_Bv3ub-12" value="Play Again?" style="rounded=0;whiteSpace=wrap;html=1;" vertex="1" parent="1">
          <mxGeometry x="1180" y="-30" width="120" height="60" as="geometry" />
        </mxCell>
        <mxCell id="STcEJnerJbnFKZ_Bv3ub-13" value="" style="endArrow=none;html=1;rounded=0;entryX=0.5;entryY=1;entryDx=0;entryDy=0;exitX=0.5;exitY=0;exitDx=0;exitDy=0;" edge="1" parent="1" source="STcEJnerJbnFKZ_Bv3ub-12" target="4Z-iEA_zes4jmot7_6xP-2">
          <mxGeometry width="50" height="50" relative="1" as="geometry">
            <mxPoint x="810" y="-230" as="sourcePoint" />
            <mxPoint x="860" y="-280" as="targetPoint" />
          </mxGeometry>
        </mxCell>
        <mxCell id="STcEJnerJbnFKZ_Bv3ub-14" value="Start Game Again" style="html=1;verticalAlign=bottom;startArrow=oval;startFill=1;endArrow=open;startSize=6;endSize=8;curved=1;rounded=0;strokeColor=#000000;strokeWidth=1;" edge="1" parent="1">
          <mxGeometry x="-0.1538" y="-8" width="80" relative="1" as="geometry">
            <mxPoint x="1190" y="-110" as="sourcePoint" />
            <mxPoint x="1080" y="-200" as="targetPoint" />
            <mxPoint as="offset" />
          </mxGeometry>
        </mxCell>
        <mxCell id="STcEJnerJbnFKZ_Bv3ub-17" value="" style="html=1;verticalAlign=bottom;startArrow=none;startFill=0;endArrow=open;startSize=6;endSize=8;curved=0;rounded=1;strokeColor=#000000;strokeWidth=1;" edge="1" parent="1">
          <mxGeometry x="0.2" width="80" relative="1" as="geometry">
            <mxPoint x="870" y="-360" as="sourcePoint" />
            <mxPoint x="840" y="-360" as="targetPoint" />
            <mxPoint as="offset" />
            <Array as="points">
              <mxPoint x="900" y="-360" />
              <mxPoint x="880" y="-320" />
              <mxPoint x="820" y="-320" />
              <mxPoint x="800" y="-360" />
            </Array>
          </mxGeometry>
        </mxCell>
        <mxCell id="STcEJnerJbnFKZ_Bv3ub-20" value="Play Game is true" style="text;html=1;align=center;verticalAlign=middle;whiteSpace=wrap;rounded=0;fillColor=default;" vertex="1" parent="1">
          <mxGeometry x="794.5" y="-310" width="115.5" height="20" as="geometry" />
        </mxCell>
        <mxCell id="STcEJnerJbnFKZ_Bv3ub-21" value="Play Game" style="rounded=0;whiteSpace=wrap;html=1;" vertex="1" parent="1">
          <mxGeometry x="980" y="-30" width="120" height="60" as="geometry" />
        </mxCell>
        <mxCell id="STcEJnerJbnFKZ_Bv3ub-22" value="Grid" style="html=1;verticalAlign=bottom;startArrow=oval;startFill=0;endArrow=open;startSize=6;endSize=8;curved=1;rounded=0;strokeColor=#000000;strokeWidth=1;" edge="1" parent="1">
          <mxGeometry x="0.2" width="80" relative="1" as="geometry">
            <mxPoint x="870" y="-140" as="sourcePoint" />
            <mxPoint x="870" y="-240" as="targetPoint" />
            <mxPoint as="offset" />
          </mxGeometry>
        </mxCell>
        <mxCell id="STcEJnerJbnFKZ_Bv3ub-27" value="Grid" style="html=1;verticalAlign=bottom;startArrow=oval;startFill=0;endArrow=open;startSize=6;endSize=8;curved=1;rounded=0;strokeColor=#000000;strokeWidth=1;" edge="1" parent="1">
          <mxGeometry x="0.2" width="80" relative="1" as="geometry">
            <mxPoint x="960" y="-210" as="sourcePoint" />
            <mxPoint x="1030" y="-100" as="targetPoint" />
            <mxPoint as="offset" />
          </mxGeometry>
        </mxCell>
        <mxCell id="STcEJnerJbnFKZ_Bv3ub-28" value="Attempts" style="edgeLabel;html=1;align=center;verticalAlign=middle;resizable=0;points=[];" vertex="1" connectable="0" parent="STcEJnerJbnFKZ_Bv3ub-27">
          <mxGeometry x="-0.4617" y="-2" relative="1" as="geometry">
            <mxPoint as="offset" />
          </mxGeometry>
        </mxCell>
        <mxCell id="STcEJnerJbnFKZ_Bv3ub-29" value="Correct Categories" style="edgeLabel;html=1;align=center;verticalAlign=middle;resizable=0;points=[];" vertex="1" connectable="0" parent="STcEJnerJbnFKZ_Bv3ub-27">
          <mxGeometry x="0.6159" y="-1" relative="1" as="geometry">
            <mxPoint y="-9" as="offset" />
          </mxGeometry>
        </mxCell>
        <mxCell id="STcEJnerJbnFKZ_Bv3ub-31" value="Print Current Grid" style="rounded=0;whiteSpace=wrap;html=1;" vertex="1" parent="1">
          <mxGeometry x="680" y="350" width="120" height="60" as="geometry" />
        </mxCell>
        <mxCell id="STcEJnerJbnFKZ_Bv3ub-32" value="Get Player Guess" style="rounded=0;whiteSpace=wrap;html=1;" vertex="1" parent="1">
          <mxGeometry x="850" y="350" width="120" height="60" as="geometry" />
        </mxCell>
        <mxCell id="STcEJnerJbnFKZ_Bv3ub-33" value="Updated Board" style="rounded=0;whiteSpace=wrap;html=1;" vertex="1" parent="1">
          <mxGeometry x="1190" y="350" width="120" height="60" as="geometry" />
        </mxCell>
        <mxCell id="STcEJnerJbnFKZ_Bv3ub-34" value="Check if Won" style="rounded=0;whiteSpace=wrap;html=1;" vertex="1" parent="1">
          <mxGeometry x="1360" y="350" width="120" height="60" as="geometry" />
        </mxCell>
        <mxCell id="STcEJnerJbnFKZ_Bv3ub-36" value="" style="endArrow=none;html=1;rounded=0;entryX=0.5;entryY=1;entryDx=0;entryDy=0;exitX=0.5;exitY=0;exitDx=0;exitDy=0;" edge="1" parent="1" source="STcEJnerJbnFKZ_Bv3ub-31" target="STcEJnerJbnFKZ_Bv3ub-21">
          <mxGeometry width="50" height="50" relative="1" as="geometry">
            <mxPoint x="1050" y="150" as="sourcePoint" />
            <mxPoint x="1100" y="100" as="targetPoint" />
          </mxGeometry>
        </mxCell>
        <mxCell id="STcEJnerJbnFKZ_Bv3ub-37" value="" style="endArrow=none;html=1;rounded=0;entryX=0.5;entryY=1;entryDx=0;entryDy=0;exitX=0.5;exitY=0;exitDx=0;exitDy=0;" edge="1" parent="1" source="STcEJnerJbnFKZ_Bv3ub-32" target="STcEJnerJbnFKZ_Bv3ub-21">
          <mxGeometry width="50" height="50" relative="1" as="geometry">
            <mxPoint x="1050" y="150" as="sourcePoint" />
            <mxPoint x="1100" y="100" as="targetPoint" />
          </mxGeometry>
        </mxCell>
        <mxCell id="STcEJnerJbnFKZ_Bv3ub-38" value="" style="endArrow=none;html=1;rounded=0;exitX=0.5;exitY=0;exitDx=0;exitDy=0;" edge="1" parent="1" source="STcEJnerJbnFKZ_Bv3ub-33">
          <mxGeometry width="50" height="50" relative="1" as="geometry">
            <mxPoint x="1050" y="150" as="sourcePoint" />
            <mxPoint x="1040" y="30" as="targetPoint" />
          </mxGeometry>
        </mxCell>
        <mxCell id="STcEJnerJbnFKZ_Bv3ub-39" value="" style="endArrow=none;html=1;rounded=0;entryX=0.5;entryY=1;entryDx=0;entryDy=0;exitX=0.5;exitY=0;exitDx=0;exitDy=0;" edge="1" parent="1" source="STcEJnerJbnFKZ_Bv3ub-34" target="STcEJnerJbnFKZ_Bv3ub-21">
          <mxGeometry width="50" height="50" relative="1" as="geometry">
            <mxPoint x="1050" y="150" as="sourcePoint" />
            <mxPoint x="1100" y="100" as="targetPoint" />
          </mxGeometry>
        </mxCell>
        <mxCell id="STcEJnerJbnFKZ_Bv3ub-30" value="" style="html=1;verticalAlign=bottom;startArrow=none;startFill=0;endArrow=open;startSize=6;endSize=8;curved=0;rounded=1;strokeColor=#000000;strokeWidth=1;" edge="1" parent="1">
          <mxGeometry x="0.2" width="80" relative="1" as="geometry">
            <mxPoint x="1060" y="50" as="sourcePoint" />
            <mxPoint x="1030" y="50" as="targetPoint" />
            <mxPoint as="offset" />
            <Array as="points">
              <mxPoint x="1090" y="50" />
              <mxPoint x="1070" y="90" />
              <mxPoint x="1010" y="90" />
              <mxPoint x="990" y="50" />
            </Array>
          </mxGeometry>
        </mxCell>
        <mxCell id="STcEJnerJbnFKZ_Bv3ub-41" value="Grid" style="html=1;verticalAlign=bottom;startArrow=oval;startFill=0;endArrow=open;startSize=6;endSize=8;curved=1;rounded=0;strokeColor=#000000;strokeWidth=1;" edge="1" parent="1">
          <mxGeometry width="80" relative="1" as="geometry">
            <mxPoint x="902.25" y="150" as="sourcePoint" />
            <mxPoint x="820" y="240" as="targetPoint" />
          </mxGeometry>
        </mxCell>
        <mxCell id="STcEJnerJbnFKZ_Bv3ub-42" value="Attempts" style="edgeLabel;html=1;align=center;verticalAlign=middle;resizable=0;points=[];" vertex="1" connectable="0" parent="STcEJnerJbnFKZ_Bv3ub-41">
          <mxGeometry x="0.348" y="-2" relative="1" as="geometry">
            <mxPoint as="offset" />
          </mxGeometry>
        </mxCell>
        <mxCell id="STcEJnerJbnFKZ_Bv3ub-43" value="Correct Categories" style="edgeLabel;html=1;align=center;verticalAlign=middle;resizable=0;points=[];" vertex="1" connectable="0" parent="STcEJnerJbnFKZ_Bv3ub-41">
          <mxGeometry x="-0.5609" y="-2" relative="1" as="geometry">
            <mxPoint as="offset" />
          </mxGeometry>
        </mxCell>
        <mxCell id="STcEJnerJbnFKZ_Bv3ub-44" value="Player Guess" style="html=1;verticalAlign=bottom;startArrow=oval;startFill=0;endArrow=open;startSize=6;endSize=8;curved=1;rounded=0;strokeColor=#000000;strokeWidth=1;" edge="1" parent="1">
          <mxGeometry x="-0.2667" y="-9" width="80" relative="1" as="geometry">
            <mxPoint x="950" y="300" as="sourcePoint" />
            <mxPoint x="980" y="210" as="targetPoint" />
            <mxPoint as="offset" />
          </mxGeometry>
        </mxCell>
        <mxCell id="STcEJnerJbnFKZ_Bv3ub-47" value="Check Player Guess" style="rounded=0;whiteSpace=wrap;html=1;" vertex="1" parent="1">
          <mxGeometry x="1020" y="350" width="120" height="60" as="geometry" />
        </mxCell>
        <mxCell id="STcEJnerJbnFKZ_Bv3ub-48" value="" style="endArrow=none;html=1;rounded=0;entryX=0.5;entryY=0;entryDx=0;entryDy=0;" edge="1" parent="1" target="STcEJnerJbnFKZ_Bv3ub-47">
          <mxGeometry width="50" height="50" relative="1" as="geometry">
            <mxPoint x="1040" y="30" as="sourcePoint" />
            <mxPoint x="1060" y="190" as="targetPoint" />
          </mxGeometry>
        </mxCell>
        <mxCell id="STcEJnerJbnFKZ_Bv3ub-35" value="Lives &amp;gt; 0 and NOT game won" style="text;html=1;align=center;verticalAlign=middle;whiteSpace=wrap;rounded=0;fillColor=default;" vertex="1" parent="1">
          <mxGeometry x="980" y="90" width="115.5" height="30" as="geometry" />
        </mxCell>
        <mxCell id="STcEJnerJbnFKZ_Bv3ub-49" value="Player Guess" style="html=1;verticalAlign=bottom;startArrow=oval;startFill=0;endArrow=open;startSize=6;endSize=8;curved=1;rounded=0;strokeColor=#000000;strokeWidth=1;" edge="1" parent="1">
          <mxGeometry x="-0.2667" y="-9" width="80" relative="1" as="geometry">
            <mxPoint x="1040" y="220" as="sourcePoint" />
            <mxPoint x="1050" y="310" as="targetPoint" />
            <mxPoint as="offset" />
          </mxGeometry>
        </mxCell>
        <mxCell id="STcEJnerJbnFKZ_Bv3ub-50" value="Correct Categroy&amp;nbsp;&lt;div&gt;Name&lt;/div&gt;" style="html=1;verticalAlign=bottom;startArrow=oval;startFill=0;endArrow=open;startSize=6;endSize=8;curved=1;rounded=0;strokeColor=#000000;strokeWidth=1;" edge="1" parent="1">
          <mxGeometry x="-0.44" y="4" width="80" relative="1" as="geometry">
            <mxPoint x="1110" y="330" as="sourcePoint" />
            <mxPoint x="1090" y="220" as="targetPoint" />
            <mxPoint as="offset" />
          </mxGeometry>
        </mxCell>
        <mxCell id="STcEJnerJbnFKZ_Bv3ub-51" value="Player Guess" style="html=1;verticalAlign=bottom;startArrow=oval;startFill=0;endArrow=open;startSize=6;endSize=8;curved=1;rounded=0;strokeColor=#000000;strokeWidth=1;" edge="1" parent="1">
          <mxGeometry x="-0.2667" y="-9" width="80" relative="1" as="geometry">
            <mxPoint x="1080" y="210" as="sourcePoint" />
            <mxPoint x="1070" y="140" as="targetPoint" />
            <mxPoint as="offset" />
          </mxGeometry>
        </mxCell>
        <mxCell id="STcEJnerJbnFKZ_Bv3ub-53" value="Player Guess" style="html=1;verticalAlign=bottom;startArrow=oval;startFill=0;endArrow=open;startSize=6;endSize=8;curved=1;rounded=0;strokeColor=#000000;strokeWidth=1;" edge="1" parent="1">
          <mxGeometry x="-0.2667" y="-9" width="80" relative="1" as="geometry">
            <mxPoint x="1140" y="200" as="sourcePoint" />
            <mxPoint x="1180" y="270" as="targetPoint" />
            <mxPoint as="offset" />
          </mxGeometry>
        </mxCell>
        <mxCell id="STcEJnerJbnFKZ_Bv3ub-54" value="Updated Board" style="html=1;verticalAlign=bottom;startArrow=oval;startFill=0;endArrow=open;startSize=6;endSize=8;curved=1;rounded=0;strokeColor=#000000;strokeWidth=1;" edge="1" parent="1">
          <mxGeometry x="-0.2667" y="-9" width="80" relative="1" as="geometry">
            <mxPoint x="1250" y="320" as="sourcePoint" />
            <mxPoint x="1200" y="240" as="targetPoint" />
            <mxPoint as="offset" />
          </mxGeometry>
        </mxCell>
        <mxCell id="STcEJnerJbnFKZ_Bv3ub-55" value="Updated Board" style="html=1;verticalAlign=bottom;startArrow=oval;startFill=0;endArrow=open;startSize=6;endSize=8;curved=1;rounded=0;strokeColor=#000000;strokeWidth=1;" edge="1" parent="1">
          <mxGeometry x="-0.2667" y="-9" width="80" relative="1" as="geometry">
            <mxPoint x="1240" y="220" as="sourcePoint" />
            <mxPoint x="1320" y="290" as="targetPoint" />
            <mxPoint as="offset" />
          </mxGeometry>
        </mxCell>
      </root>
    </mxGraphModel>
  </diagram>
</mxfile>
